<svg width="30px" height="30px" viewBox="0 0 30 30" version="1.1" xmlns="http://www.w3.org/2000/svg" xmlns:xlink="http://www.w3.org/1999/xlink">
    <g stroke="none" stroke-width="1" fill="none" fill-rule="evenodd">
        <g fill="#81879F" fill-rule="nonzero">
            <path d="M21.5,14.398438 C21.699219,14.699219 21.898438,15 22,15.5 L18.800781,15.5 C18.800781,15.398438 18.800781,15.199219 18.898438,15 C19,14.800781 19,14.699219 19.199219,14.5 C19.300781,14.300781 19.5,14.199219 19.699219,14.101563 C19.898438,14 20.199219,13.898438 20.5,13.898438 C20.898438,14 21.300781,14.101563 21.5,14.398438 Z M15,30 C23.2842712,30 30,23.2842712 30,15 C30,6.71572875 23.2842712,0 15,0 C6.71572875,0 0,6.71572875 0,15 C0,23.2842712 6.71572875,30 15,30 Z M12.300781,13.699219 C12.5,13.5 12.699219,13.199219 12.699219,12.800781 C12.699219,12.601563 12.699219,12.398438 12.601563,12.199219 C12.5,12.101563 12.398438,11.898438 12.300781,11.898438 C12.199219,11.800781 12,11.800781 11.800781,11.699219 C11.601563,11.699219 11.398438,11.699219 11.199219,11.699219 L9.199219,11.699219 L9.199219,14 L11.398438,14 C11.699219,14 12,13.898438 12.300781,13.699219 Z M11.5,15.398438 L9.199219,15.398438 L9.199219,18.101563 L11.5,18.101563 C11.699219,18.101563 11.898438,18.101563 12.101563,18 C12.300781,18 12.5,17.898438 12.601563,17.800781 C12.699219,17.699219 12.898438,17.601563 13,17.398438 C13.101563,17.199219 13.101563,17 13.101563,16.800781 C13.101563,16.300781 13,15.898438 12.699219,15.699219 C12.398438,15.5 12,15.398438 11.5,15.398438 Z M18.398438,11.601563 L18.398438,10.601563 L22.398438,10.601563 L22.398438,11.601563 L18.398438,11.601563 Z M15.199219,17 C15.199219,17.5 15.101563,17.898438 15,18.199219 C14.800781,18.601563 14.5,18.898438 14.199219,19.101563 C13.898438,19.300781 13.5,19.5 13.101563,19.601563 C12.699219,19.699219 12.199219,19.800781 11.800781,19.800781 L7,19.800781 L7,10 L11.601563,10 C12.101563,10 12.5,10 13,10.199219 C13.398438,10.300781 13.699219,10.398438 14,10.601563 C14.199219,10.699219 14.398438,11 14.601563,11.300781 C14.699219,11.699219 14.800781,12 14.800781,12.5 C14.800781,13 14.699219,13.398438 14.5,13.699219 C14.300781,14 13.898438,14.300781 13.5,14.5 C14.101563,14.699219 14.5,15 14.800781,15.398438 C15.101563,15.898438 15.199219,16.398438 15.199219,17 Z M18.800781,16.699219 C18.800781,17.300781 19,17.800781 19.300781,18.199219 C19.601563,18.5 20.101563,18.601563 20.601563,18.601563 C21,18.601563 21.300781,18.5 21.601563,18.300781 C21.898438,18.101563 22,17.898438 22.101563,17.699219 L23.800781,17.699219 C23.5,18.5 23.101563,19.101563 22.5,19.5 C21.898438,19.898438 21.199219,20.101563 20.398438,20.101563 C19.898438,20.101563 19.398438,20 18.898438,19.800781 C18.5,19.601563 18.101563,19.300781 17.800781,19 C17.5,18.699219 17.300781,18.300781 17.101563,17.800781 C16.898438,17.398438 16.800781,16.800781 16.800781,16.300781 C16.800781,15.800781 16.898438,15.300781 17.101563,14.800781 C17.199219,14.300781 17.5,13.898438 17.800781,13.601563 C18.199219,13.300781 18.601563,13 19,12.800781 C19.5,12.601563 20,12.5 20.5,12.5 C21.101563,12.5 21.601563,12.699219 22.101563,12.898438 C22.5,13.101563 22.898438,13.398438 23.199219,13.800781 C23.5,14.101563 23.699219,14.601563 23.800781,15.101563 C23.898438,15.601563 23.898438,16.101563 23.898438,16.699219 L18.800781,16.699219 Z" id="Shape"></path>
        </g>
    </g>
</svg>