<?xml version="1.0" encoding="UTF-8"?>
<svg width="30px" height="30px" viewBox="0 0 30 30" version="1.1" xmlns="http://www.w3.org/2000/svg" xmlns:xlink="http://www.w3.org/1999/xlink">
    <g  stroke="none" stroke-width="1" fill="none" fill-rule="evenodd">
        <g fill="#81879F" fill-rule="nonzero">
            <path d="M15,30 C6.71572875,30 0,23.2842712 0,15 C0,6.71572875 6.71572875,0 15,0 C23.2842712,0 30,6.71572875 30,15 C30,23.2842712 23.2842712,30 15,30 Z M20.6063714,16.7211153 C20.3471664,16.2611201 19.9938082,15.9002366 19.5462967,15.6448781 C19.2383136,15.4629788 18.7908021,15.2927398 18.2071655,15.1405741 C18.7510989,14.9505127 19.1895354,14.7138105 19.5196389,14.4223053 C19.8531455,14.1284681 20.1044099,13.7926541 20.2785367,13.4154463 C20.4566337,13.0364896 20.5490854,12.6365445 20.5490854,12.2132789 C20.5490854,11.6343496 20.3817649,11.1003121 20.0482583,10.6129154 C19.7124829,10.1255187 19.2383136,9.75355808 18.6189441,9.49586749 C18.3807251,9.39500669 18.0959966,9.31863233 17.7812072,9.25683322 L17.7812072,7 L15.6763719,7 L15.6763719,9.10525052 L14.3207922,9.10525052 L14.3207922,7 L12.2148225,7 L12.2148225,9.10525052 L9,9.10525052 L9,10.872938 L9.48551307,10.872938 C9.81334783,10.872938 10.0385215,10.9044206 10.1525264,10.9662197 C10.2670984,11.0268528 10.3516094,11.1090572 10.3998204,11.2145821 C10.4485986,11.317775 10.4712861,11.5603073 10.4712861,11.939847 L10.4712861,19.0741452 C10.4712861,19.4490209 10.4485986,19.6845571 10.3998204,19.790665 C10.3516094,19.8991049 10.2682327,19.9795603 10.1525264,20.0425255 C10.0385215,20.0996605 9.81334783,20.127645 9.48551307,20.127645 L9,20.127645 L9,21.8935835 L12.2148225,21.8935835 L12.2148225,24 L14.3207922,24 L14.3207922,21.8935835 L15.5192608,21.8935835 C15.5720093,21.8935835 15.6241906,21.8935835 15.6752375,21.8935835 L15.6752375,24 L17.7800728,24 L17.7800728,21.7145993 C18.1368341,21.645221 18.4482204,21.5542714 18.7130973,21.4446655 C19.4396654,21.1461641 20.002316,20.7112384 20.4004821,20.1398882 C20.8026185,19.567372 21,18.9406358 21,18.2620117 C20.9994328,17.6970747 20.8689795,17.1834425 20.6063714,16.7211153 Z M14,11 L15.3709723,11 C16.1716567,11 16.7311092,11.0493181 17.0419162,11.1490753 C17.350442,11.244349 17.5899629,11.4074351 17.752495,11.6355315 C17.9184488,11.8669905 18,12.1449654 18,12.4666542 C18,12.7765739 17.9121756,13.0500654 17.7416595,13.28881 C17.5654405,13.5286755 17.3071001,13.7057725 16.964357,13.8206613 C16.6199031,13.9400336 16.0901055,14 15.3726832,14 L14.0017109,14 L14,11 Z M17.6506299,19.1566303 C17.4184343,19.4986566 17.1437771,19.7281492 16.811071,19.8356251 C16.4848148,19.9443654 16.0698727,20 15.5683949,20 L14.7073364,20 C14.4213919,20 14.2456328,19.9804015 14.1795216,19.9443654 C14.1134103,19.9121226 14.0693362,19.8457405 14.0397742,19.7540699 C14.0198871,19.6788367 14.0032249,19.4316422 14,19.003003 L14,16 L15.5253957,16 C16.1994077,16 16.6917483,16.0727043 17.019617,16.2200095 C17.3447982,16.365418 17.592581,16.5803698 17.7511404,16.8680259 C17.9161498,17.1506243 17.9999982,17.4951794 17.9999982,17.9099099 C18.0005356,18.3960803 17.8839004,18.808282 17.6506299,19.1566303 Z" id="svg_2"></path>
        </g>
    </g>
</svg>