<?xml version="1.0" encoding="UTF-8"?>
<svg width="40px" height="40px" viewBox="0 0 40 40" version="1.1" xmlns="http://www.w3.org/2000/svg" xmlns:xlink="http://www.w3.org/1999/xlink">
    <!-- Generator: Sketch 49.3 (51167) - http://www.bohemiancoding.com/sketch -->
    <title>BTC</title>
    <desc>Created with Sketch.</desc>
    <defs></defs>
    <g id="BTC" stroke="none" stroke-width="1" fill="none" fill-rule="evenodd">
        <circle id="Oval-4" fill="#F7931A" cx="20" cy="20" r="20"></circle>
        <path d="M27.4751619,21.5802668 C27.1295552,20.9849789 26.6584109,20.5179533 26.061729,20.1874893 C25.6510847,19.9520903 25.0544028,19.7317809 24.2762206,19.5348606 C25.0014652,19.2888988 25.5860472,18.9825783 26.0261852,18.6053363 C26.4708607,18.2250763 26.8058799,17.7904935 27.0380489,17.3023423 C27.2755117,16.8119277 27.3987805,16.2943517 27.3987805,15.7465962 C27.3987805,14.9973936 27.1756865,14.3062862 26.731011,13.6755376 C26.2833105,13.0447889 25.6510847,12.5634281 24.8252588,12.2299462 C24.5076334,12.0994204 24.1279955,12.000583 23.7082762,11.9206077 L23.7082762,9 L20.9018292,9 L20.9018292,11.7244419 L19.0943896,11.7244419 L19.0943896,9 L16.28643,9 L16.28643,11.7244419 L12,11.7244419 L12,14.0120374 L12.6473508,14.0120374 C13.0844638,14.0120374 13.3846954,14.0527796 13.5367018,14.1327549 C13.6894645,14.2112212 13.8021459,14.3176035 13.8664272,14.4541651 C13.9314648,14.5877088 13.9617148,14.9015741 13.9617148,15.3927432 L13.9617148,24.6253644 C13.9617148,25.1104976 13.9314648,25.4153092 13.8664272,25.5526253 C13.8021459,25.6929593 13.690977,25.7970781 13.5367018,25.8785624 C13.3846954,25.9525018 13.0844638,25.988717 12.6473508,25.988717 L12,25.988717 L12,28.2740492 L16.28643,28.2740492 L16.28643,31 L19.0943896,31 L19.0943896,28.2740492 L20.6923477,28.2740492 C20.762679,28.2740492 20.8322541,28.2740492 20.9003167,28.2740492 L20.9003167,31 L23.7067637,31 L23.7067637,28.0424226 C24.1824455,27.952639 24.5976273,27.8349395 24.9507964,27.6930965 C25.9195538,27.3068006 26.6697547,26.7439556 27.2006428,26.0045612 C27.7368247,25.2636579 28,24.4525875 28,23.5743681 C27.9992437,22.8432731 27.825306,22.1785727 27.4751619,21.5802668 Z M18,14 L19.7137154,14 C20.7145709,14 21.4138865,14.0657575 21.8023952,14.198767 C22.1880525,14.3257986 22.4874537,14.5432468 22.6906188,14.8473753 C22.898061,15.1559873 23,15.5266206 23,15.955539 C23,16.3687652 22.8902196,16.7334205 22.6770744,17.0517467 C22.4568007,17.3715673 22.1338751,17.6076966 21.7054463,17.7608817 C21.2748788,17.9200448 20.6126319,18 19.715854,18 L18.0021386,18 L18,14 Z M22.5632873,24.9457879 C22.2730429,25.3733207 21.9297214,25.6601865 21.5138387,25.7945314 C21.1060185,25.9304568 20.5873409,26 19.9604936,26 L18.8841705,26 C18.5267399,26 18.307041,25.9755018 18.2244019,25.9304568 C18.1417629,25.8901533 18.0866702,25.8071756 18.0497178,25.6925873 C18.0248589,25.5985459 18.0040312,25.2895527 18,24.7537538 L18,21 L19.9067446,21 C20.7492597,21 21.3646854,21.0908804 21.7745212,21.2750119 C22.1809978,21.4567726 22.4907262,21.7254623 22.6889255,22.0850324 C22.8951872,22.4382804 22.9999977,22.8689742 22.9999977,23.3873874 C23.0006696,23.9951004 22.8548755,24.5103525 22.5632873,24.9457879 Z" id="svg_2" fill="#FFFFFF" fill-rule="nonzero" transform="translate(20.000000, 20.000000) rotate(-345.000000) translate(-20.000000, -20.000000) "></path>
    </g>
</svg>