<?xml version="1.0" encoding="UTF-8"?>
<svg width="40px" height="40px" viewBox="0 0 40 40" version="1.1" xmlns="http://www.w3.org/2000/svg" xmlns:xlink="http://www.w3.org/1999/xlink">
    <!-- Generator: Sketch 49.3 (51167) - http://www.bohemiancoding.com/sketch -->
    <title>IMP</title>
    <desc>Created with Sketch.</desc>
    <defs>
        <linearGradient x1="0%" y1="0.577884856%" x2="112.668679%" y2="112.120472%" id="linearGradient-1">
            <stop stop-color="#00EAF8" offset="0%"></stop>
            <stop stop-color="#6D42EF" offset="100%"></stop>
        </linearGradient>
        <linearGradient x1="82.3597171%" y1="93.8763608%" x2="95.8138021%" y2="-46.234022%" id="linearGradient-2">
            <stop stop-color="#FFFFFF" offset="0%"></stop>
            <stop stop-color="#FFFFFF" offset="0%"></stop>
            <stop stop-color="#CED3EC" offset="100%"></stop>
        </linearGradient>
    </defs>
    <g id="IMP" stroke="none" stroke-width="1" fill="none" fill-rule="evenodd">
        <g>
            <circle id="Oval-2" fill="url(#linearGradient-1)" cx="20" cy="20" r="20"></circle>
            <path d="M11.4199927,18.5775042 C11.6451925,18.5775042 11.8243261,18.6598348 11.9573988,18.8244985 C12.0904714,18.9891621 12.1365343,19.1846973 12.0955889,19.4111098 L10.3625906,27.4697166 C10.3216452,27.6961291 10.1988107,27.8916643 9.99408355,28.056328 C9.78935638,28.2209916 9.57439609,28.3033222 9.34919621,28.3033222 L6.70822903,28.3033222 C6.48302915,28.3033222 6.30901368,28.2209916 6.18617738,28.056328 C6.06334108,27.8916643 6.02239627,27.6961291 6.0633417,27.4697166 L7.79634002,19.4111098 C7.83728545,19.1846973 7.9550018,18.9891621 8.14949261,18.8244985 C8.34398341,18.6598348 8.5538256,18.5775042 8.77902548,18.5775042 L11.4199927,18.5775042 Z" id="Path-Copy-3" fill="url(#linearGradient-2)"></path>
            <path d="M12.7404413,12.0943239 C12.9655696,12.0943239 13.1446462,12.1766545 13.2776766,12.3413181 C13.4107069,12.5059818 13.4567552,12.701517 13.4158228,12.9279295 L12.8939371,15.3361235 C12.8530047,15.5625361 12.7302093,15.7580712 12.5255472,15.9227349 C12.3208851,16.0873986 12.1059932,16.1697292 11.8808649,16.1697292 L9.24073722,16.1697292 C9.01560893,16.1697292 8.84164877,16.0873986 8.71885152,15.9227349 C8.59605427,15.7580712 8.55512247,15.5625361 8.59605488,15.3361235 L9.11794058,12.9279295 C9.158873,12.701517 9.27655193,12.5059818 9.47098091,12.3413181 C9.66540988,12.1766545 9.87518537,12.0943239 10.1003137,12.0943239 L12.7404413,12.0943239 Z" id="Path" fill="url(#linearGradient-2)"></path>
            <path d="M18.2961423,18.5775042 C18.5213422,18.5775042 18.7004758,18.6598348 18.8335484,18.8244985 C18.9666211,18.9891621 19.012684,19.1846973 18.9717386,19.4111098 L17.2387403,27.4697166 C17.1977948,27.6961291 17.0749604,27.8916643 16.8702332,28.056328 C16.6655061,28.2209916 16.4505458,28.3033222 16.2253459,28.3033222 L13.5843787,28.3033222 C13.3591788,28.3033222 13.1851634,28.2209916 13.0623271,28.056328 C12.9394908,27.8916643 12.8985459,27.6961291 12.9394914,27.4697166 L14.6724897,19.4111098 C14.7134351,19.1846973 14.8311515,18.9891621 15.0256423,18.8244985 C15.2201331,18.6598348 15.4299753,18.5775042 15.6551752,18.5775042 L18.2961423,18.5775042 Z" id="Path-Copy-3" fill="url(#linearGradient-2)"></path>
            <path d="M33.337758,12.0943239 C33.5629579,12.0943239 33.7420915,12.1766545 33.8751641,12.3413181 C34.0082368,12.5059818 34.0542997,12.701517 34.0133543,12.9279295 L32.2803559,20.9865362 C32.2394105,21.2129488 32.116576,21.4084839 31.9118489,21.5731476 C31.7071217,21.7378113 31.4921614,21.8201419 31.2669616,21.8201419 L28.6259944,21.8201419 C28.4007945,21.8201419 28.226779,21.7378113 28.1039427,21.5731476 C27.9811064,21.4084839 27.9401616,21.2129488 27.981107,20.9865362 L29.7141054,12.9279295 C29.7550508,12.701517 29.8727671,12.5059818 30.0672579,12.3413181 C30.2617487,12.1766545 30.4715909,12.0943239 30.6967908,12.0943239 L33.337758,12.0943239 Z" id="Path-Copy-3" fill="url(#linearGradient-2)"></path>
            <path d="M24.0310386,27.4617012 C23.9897073,27.6902907 23.8708817,27.8877061 23.6745581,28.053953 C23.4782345,28.2202 23.2664149,28.3033222 23.0390928,28.3033222 L20.5591588,28.3033222 C20.3318368,28.3033222 20.1510151,28.2202 20.0166885,28.053953 C19.8823618,27.8877061 19.8358648,27.6902907 19.8771961,27.4617012 L22.9460283,12.9359449 C22.9873595,12.7073553 23.1113515,12.50994 23.3180079,12.3436931 C23.5246643,12.1774461 23.7416503,12.0943239 23.9689723,12.0943239 L26.4489063,12.0943239 C26.6762284,12.0943239 26.8518837,12.1774461 26.9758775,12.3436931 C27.0998714,12.50994 27.141202,12.7073553 27.0998707,12.9359449 L24.0310386,27.4617012 Z" id="Path" fill="url(#linearGradient-2)"></path>
        </g>
    </g>
</svg>