<svg xmlns="http://www.w3.org/2000/svg" xmlns:xlink="http://www.w3.org/1999/xlink" width="273" height="185" viewBox="0 0 273 185"><defs><path id="nl0ea" d="M765 258a8 8 0 0 1 8-8h224a8 8 0 0 1 8 8v134a8 8 0 0 1-8 8H773a8 8 0 0 1-8-8z"/><path id="nl0ed" d="M785 298a8 8 0 0 1 8-8h74a8 8 0 0 1 8 8v54a8 8 0 0 1-8 8h-74a8 8 0 0 1-8-8z"/><path id="nl0ee" d="M895 298a8 8 0 0 1 8-8h74a8 8 0 0 1 8 8v54a8 8 0 0 1-8 8h-74a8 8 0 0 1-8-8z"/><path id="nl0ef" d="M785 276a6 6 0 0 1 6-6h188a6 6 0 1 1 0 12H791a6 6 0 0 1-6-6z"/><path id="nl0eg" d="M945 374.5a6.5 6.5 0 0 1 6.5-6.5h27a6.5 6.5 0 0 1 0 13h-27a6.5 6.5 0 0 1-6.5-6.5z"/><mask id="nl0ec" width="2" height="2" x="-1" y="-1"><path fill="#fff" d="M765 250h240v150H765z"/><use xlink:href="#nl0ea"/></mask><filter id="nl0eb" width="300" height="212" x="735" y="240" filterUnits="userSpaceOnUse"><feOffset dy="2" in="SourceGraphic" result="FeOffset1077Out"/><feGaussianBlur in="FeOffset1077Out" result="FeGaussianBlur1078Out" stdDeviation="8 8"/></filter></defs><g><g transform="translate(-749 -234)"><g><g filter="url(#nl0eb)"><use fill="none" stroke-opacity=".5" stroke-width="0" mask="url(&quot;#nl0ec&quot;)" xlink:href="#nl0ea"/><use fill-opacity=".5" xlink:href="#nl0ea"/></g><use fill="#fff" xlink:href="#nl0ea"/></g><g><use fill="#bcc2d9" xlink:href="#nl0ed"/></g><g><use fill="#bcc2d9" xlink:href="#nl0ee"/></g><g><use fill="#474e65" xlink:href="#nl0ef"/></g><g><use fill="#fc3868" xlink:href="#nl0eg"/></g></g></g></svg>