<svg xmlns="http://www.w3.org/2000/svg" xmlns:xlink="http://www.w3.org/1999/xlink" width="273" height="185" viewBox="0 0 273 185"><defs><path id="1ncea" d="M435 258a8 8 0 0 1 8-8h224a8 8 0 0 1 8 8v134a8 8 0 0 1-8 8H443a8 8 0 0 1-8-8z"/><path id="1nced" d="M455 276a6 6 0 0 1 6-6h188a6 6 0 1 1 0 12H461a6 6 0 0 1-6-6z"/><path id="1ncee" d="M455 298a6 6 0 0 1 6-6h158a6 6 0 1 1 0 12H461a6 6 0 0 1-6-6z"/><path id="1ncef" d="M455 340a6 6 0 0 1 6-6h28a6 6 0 1 1 0 12h-28a6 6 0 0 1-6-6z"/><path id="1nceg" d="M455 363a6 6 0 0 1 6-6h28a6 6 0 1 1 0 12h-28a6 6 0 0 1-6-6z"/><path id="1nceh" d="M555 340a6 6 0 0 1 6-6h28a6 6 0 1 1 0 12h-28a6 6 0 0 1-6-6z"/><path id="1ncei" d="M555 363a6 6 0 0 1 6-6h28a6 6 0 1 1 0 12h-28a6 6 0 0 1-6-6z"/><mask id="1ncec" width="2" height="2" x="-1" y="-1"><path fill="#fff" d="M435 250h240v150H435z"/><use xlink:href="#1ncea"/></mask><filter id="1nceb" width="300" height="212" x="405" y="240" filterUnits="userSpaceOnUse"><feOffset dy="2" in="SourceGraphic" result="FeOffset1025Out"/><feGaussianBlur in="FeOffset1025Out" result="FeGaussianBlur1026Out" stdDeviation="8 8"/></filter></defs><g><g transform="translate(-419 -234)"><g><g filter="url(#1nceb)"><use fill="none" stroke-opacity=".5" stroke-width="0" mask="url(&quot;#1ncec&quot;)" xlink:href="#1ncea"/><use fill-opacity=".5" xlink:href="#1ncea"/></g><use fill="#fff" xlink:href="#1ncea"/></g><g><use fill="#474e65" xlink:href="#1nced"/></g><g><use fill="#474e65" xlink:href="#1ncee"/></g><g><use fill="#bcc2d9" xlink:href="#1ncef"/></g><g><use fill="#bcc2d9" xlink:href="#1nceg"/></g><g><use fill="#34e8c0" xlink:href="#1nceh"/></g><g><use fill="#bcc2d9" xlink:href="#1ncei"/></g></g></g></svg>